<svg width="575" height="551" viewBox="0 0 575 551" fill="none" xmlns="http://www.w3.org/2000/svg">
<g clip-path="url(#clip0_1_2)">
<path d="M237.573 307.215C230.424 315.896 228.019 329.881 228.019 329.881L237.573 334.771C245.573 316.104 252.685 310.548 252.685 310.548C252.685 310.548 243.796 299.66 237.573 307.215Z" fill="white"/>
<path d="M385.129 242.992C377.573 257.215 372.907 266.104 366.24 264.104C359.573 262.104 356.24 250.771 357.573 238.104C363.312 239.743 374.079 240.077 386.98 239.005C386.343 240.52 385.723 241.875 385.129 242.992V242.992ZM333.629 162.325C323.213 153.325 329.213 141.743 331.713 140.659C334.213 139.576 340.296 140.743 337.629 153.159C336.937 156.387 335.953 159.753 334.743 163.224C334.368 162.939 333.996 162.643 333.629 162.325ZM279.463 158.909C277.547 150.409 287.047 143.576 286.907 156.771C286.865 160.727 286.205 165.251 284.907 170.233C282.115 166.709 280.276 162.516 279.463 158.909ZM252.463 178.992C260.577 169.232 266.417 169.253 263.719 175.388C256.268 192.323 245.06 201.897 238.903 202.035C242.731 193.377 247.572 184.875 252.463 178.992V178.992ZM462.463 123.659C446.749 143.757 449.059 168.84 461.351 172.548C475.351 176.771 479.129 163.215 479.129 163.215C466.463 164.104 461.573 146.548 472.907 125.881C484.24 105.215 520.24 103.437 515.796 134.104C511.351 164.771 493.796 194.992 447.129 214.771C428.459 222.683 412.144 227.281 398.281 229.759C400.361 224.343 402.425 218.267 404.463 211.437C416.463 171.215 428.907 147.881 434.463 145.437C423.796 140.325 416.907 141.659 410.463 160.771C409.723 162.961 408.917 165.56 408.063 168.436C408.059 168.451 408.055 168.464 408.049 168.477C399.551 193.805 379.88 213.909 378.047 214.576C376.213 215.243 371.213 212.325 383.129 181.825C395.047 151.325 402.713 148.659 402.713 148.659C402.713 148.659 400.796 145.492 392.796 145.909C386.607 146.231 379.423 159.272 375.56 169.48C370.212 179.609 360.943 196.937 355.38 206.076C347.213 219.492 342.796 222.076 341.463 220.909C340.129 219.743 339.296 213.325 348.463 193.325C357.629 173.325 367.796 167.159 367.796 167.159C367.547 166.743 361.713 156.992 353.796 164.243C352.684 165.26 351.528 166.596 350.355 168.164C347.845 168.155 344.944 167.851 341.983 166.929C343.191 164.023 344.223 161.371 345.047 159.076C350.129 144.909 346.463 139.659 337.213 136.825C327.963 133.992 316.047 145.159 325.463 161.659C327.428 165.103 329.78 167.713 332.269 169.703C328.683 178.445 323.947 187.677 318.88 196.909C314.352 205.156 307.528 218.944 301.101 225.571C295.577 231.265 289.708 231.677 293.213 218.659C300.796 190.492 314.88 177.909 314.88 177.909C310.823 174.496 305.757 169.381 298.943 177.824C296.201 177.767 293.724 177.059 291.525 175.895C295.648 164.544 296.544 154.844 291.351 148.816C283.352 139.529 268.629 148.243 274.019 165.215C275.877 171.069 279.064 174.975 282.621 177.587C278.396 189.395 270.895 203.289 259.352 218.548C240.019 244.104 234.24 242.771 231.573 232.992C230.152 227.779 232.799 216.845 237.385 205.603C238.225 207.439 239.825 209.347 242.907 210.104C249.573 211.74 261.129 200.548 266.463 187.491C271.796 174.433 269.352 169.659 260.463 166.104C251.573 162.548 242.24 172.104 231.219 193.215C220.197 214.325 222.685 237.437 234.24 243.437C245.796 249.437 272.019 214.771 282.463 195.437C285.111 190.533 287.501 185.717 289.465 181.105C291.74 181.875 293.927 182.295 295.801 182.513C294.728 184.381 293.617 186.568 292.463 189.159C283.547 209.159 284.851 220.409 286.213 226.409C287.967 234.136 298.213 238.992 312.629 219.909C323.007 206.172 332.609 188.029 339.068 173.657C341.405 174.597 343.671 175.153 345.679 175.471C340.052 185.476 334.844 198.944 333.047 208.325C330.38 222.243 339.713 232.076 350.421 220.992C356.053 215.164 363.859 202.539 369.999 191.876C368.235 202.2 367.867 213.699 375.432 216.743C383.137 219.843 393.508 207.211 399.781 198.065C396.511 209.904 393.107 221.891 389.968 231.036C373.389 233.161 360.945 232.156 352.907 230.548C346.24 249.215 356.017 268.928 367.796 267.627C376.456 266.671 385.719 258.469 394.784 238.212C415.431 235.741 439.692 229.985 457.573 220.548C489.573 203.659 530.601 177.063 526.24 134.325C522.907 101.659 481.573 99.2147 462.463 123.659" fill="white"/>
<path d="M46.6297 305.66C80.6297 307.66 105.796 266.992 119.463 242.492C133.13 217.992 151.796 174.825 165.629 148.325C162.324 159.521 156.629 198.492 154.963 217.221C153.296 235.951 151.629 244.825 164.629 250.159C169.296 229.825 188.796 186.992 205.629 169.325C187.296 204.492 192.629 236.659 198.963 252.492C205.296 268.325 221.463 275.492 228.463 267.688C235.463 259.884 231.129 247.992 224.139 246.992C226.813 249.325 227.796 257.325 223.296 264.659C218.796 271.992 201.796 260.825 201.629 228.659C201.463 196.492 220.364 159.343 225.463 151.325C229.463 145.035 227.629 145.871 224.139 145.035C216.137 143.117 174.463 194.659 165.796 231.159C164.296 213.825 172.129 162.159 182.463 133.825C171.963 131.492 159.129 142.825 150.463 158.492C141.796 174.159 103.296 254.825 81.4631 281.493C58.6088 309.405 18.4631 309.493 15.9631 271.825C13.4631 234.159 29.7964 210.325 46.4631 205.159C63.1297 199.992 68.2964 221.659 63.1297 237.659C57.9631 253.659 47.2964 253.992 44.4631 248.992C43.2964 256.659 44.7964 263.492 50.7964 263.492C56.7964 263.492 65.4964 259.903 71.4631 244.125C80.4631 220.325 63.9631 197.825 44.1297 200.659C14.4563 204.897 5.12971 234.325 3.12971 251.992C1.1297 269.659 12.6297 303.66 46.6297 305.66" fill="white"/>
<path d="M531.463 342.16C527.796 354.827 522.963 357.16 515.629 354.827C508.769 352.643 512.815 336.163 528.532 322.173C531.219 330.199 532.785 337.591 531.463 342.16ZM448.129 359.993C442.296 354.993 457.796 317.16 465.629 309.827C471.465 304.361 478.409 305.376 483.296 307.351C482.923 308.232 482.556 309.149 482.199 310.099C476.828 320.343 453.288 364.415 448.129 359.993ZM267.796 388.827C267.296 399.827 259.463 402.66 253.963 402.327C248.463 401.993 244.796 401.16 251.629 386.827C253.689 382.507 258.028 376.84 263.447 370.803C266.039 378.328 267.984 384.701 267.796 388.827V388.827ZM174.629 331.66C177.363 330.488 178.775 334.397 172.676 352.117C168.636 343.044 172.361 332.631 174.629 331.66ZM93.5084 356.961C86.8203 374.291 74.5604 386.808 70.1297 385.66C62.6973 383.732 67.7964 364.493 79.6297 349.327C84.1828 352.988 88.8339 355.455 93.5084 356.961ZM78.2964 404.827C55.8125 431.289 28.0369 457.469 17.9631 452.66C-0.382296 443.899 8.45 402.344 28.1297 366.66C46.8391 332.731 76.6084 306.652 88.2964 310.993C99.7131 315.232 100.557 336.439 94.4817 354.292C86.524 351.977 82.7964 346.827 82.7964 346.827C82.7964 346.827 82.7964 346.827 84.4631 344.327C66.9631 340.827 44.4631 380.493 68.9631 388.327C84.0765 393.159 97.3177 377.631 103.37 358.777C106.011 358.916 108.644 358.797 111.254 358.448C110.342 360.607 109.43 362.781 108.519 364.96C103.069 372.944 91.6844 389.067 78.2964 404.827ZM169.129 289.993C177.733 293.239 155.657 330.475 127.398 347.345C144.207 311.987 162.824 287.613 169.129 289.993ZM556.463 293.827C550.604 296.92 542.439 302.143 534.432 308.692C531.897 303.999 528.799 298.985 525.159 293.643C526.119 291.047 526.904 288.688 527.463 286.66C531.129 273.325 529.796 269.325 523.629 271.325C517.463 273.325 510.296 276.159 513.463 285.66C514.335 288.276 516.373 292.783 518.787 298.195C508.307 319.973 486.649 361.345 482.296 356.993C477.296 351.993 492.629 309.327 503.296 301.993C503.296 301.993 493.463 290.16 486.629 300.827C486.097 301.656 485.573 302.581 485.059 303.573C482.08 301.951 477.932 299.801 473.463 297.827C464.796 293.993 459.296 297.66 452.963 306.16C448.695 311.888 443.008 321.479 439.333 333.04C438.975 333.46 438.651 333.993 438.651 333.993C438.651 333.993 410.296 377.327 407.129 374.66C403.963 371.993 412.796 354.993 423.463 335.66C434.129 316.327 428.129 314.327 421.129 309.993C414.129 305.66 411.629 307.463 406.296 314.395C400.963 321.327 378.129 364.327 374.963 372.993C383.629 350.493 384.629 347.327 391.463 332.993C398.296 318.66 388.796 316.796 383.129 314.395C377.463 311.993 373.185 312.827 363.74 326.493C354.296 340.16 339.463 373.993 339.463 373.993C339.463 373.993 341.517 362.327 350.74 345.16C359.963 327.993 363.796 315.493 345.129 313.16C342.963 325.993 341.963 325.493 334.796 339.327C327.629 353.16 305.141 392.421 296.963 390.493C291.905 389.299 303.653 349.321 321.957 306.524C346.883 300.581 380.029 290.251 402.907 284.161C430.24 276.884 430.24 289.215 430.24 289.215C430.24 289.215 432.684 286.104 430.907 273.437C428.631 257.223 403.129 267.881 362.907 285.215C349.565 290.964 337.04 295.14 325.832 298.044C334.035 281.331 342.693 270.72 343.463 271.159C343.463 271.159 336.129 257.384 329.129 267.688C326.147 272.079 320.024 285.152 313.36 300.875C296.951 304.041 284.572 304.121 278.463 302.327C280.019 310.771 283.352 314.104 308.463 309.437C308.931 309.349 309.417 309.253 309.896 309.161C307.301 315.461 304.695 322 302.217 328.44C297.656 331.825 284.664 341.709 269.439 355.457C266.647 349.704 263.901 344.667 261.815 341C261.999 340.559 262.161 340.164 262.296 339.827C266.296 329.827 273.129 315.493 264.296 314.493C255.463 313.493 251.335 320.308 251.963 328.66C252.301 333.163 253.181 337.867 254.357 342.595C245.148 361.397 221.66 407.487 213.296 406.16C204.291 404.729 235.629 346.493 237.796 344.493C231.796 338.993 225.796 337.327 221.963 345.66C218.129 353.993 209.129 374.827 206.629 379.16C204.129 383.493 183.963 415.993 180.463 412.827C176.963 409.66 197.129 367.327 203.463 359.993C203.463 359.993 192.296 351.66 189.463 356.66C188.808 357.815 187.571 360.263 186.055 363.479C182.991 362.424 180.493 361.061 178.48 359.488C188.921 333.991 183.801 331.525 179.296 327.827C174.629 323.993 164.241 324.897 163.463 343.16C163.171 349.999 166.161 355.385 170.015 359.448C168.76 362.761 167.308 366.427 165.629 370.493C151.796 403.993 134.296 424.827 130.13 422.16C125.963 419.494 134.296 397.993 145.296 380.493C156.296 362.993 146.296 356.493 140.963 353.827C135.629 351.16 125.963 362.16 108.963 394.16C113.274 380.443 118.396 367.232 123.823 355.093C147.771 345.679 167.727 321.361 172.129 315.493C179.129 306.16 189.463 292.493 170.629 285.16C151.796 277.827 135.629 307.66 128.796 319.659C125.954 324.649 119.823 338.327 113.26 353.721C110.034 354.672 107.073 355.177 104.384 355.336C109.7 335.585 107.065 313.399 90.6661 307.327C65.8385 298.129 33.7964 335.16 18.4631 359.827C3.12969 384.493 -13.2036 444.994 16.7964 457.66C38.0281 466.623 76.2027 421.313 96.7052 394.06C94.1099 400.688 92.064 406.153 90.9631 409.493C85.7964 425.16 98.6297 427.827 98.6297 427.827C103.63 408.993 125.296 371.993 135.296 361.827C145.296 351.66 141.463 363.493 134.463 377.16C127.463 390.827 115.13 418.16 128.63 425.16C141.761 431.968 164.037 392.731 176.287 364.661C179.247 366.637 182.004 367.957 183.671 368.673C178.785 379.617 172.791 394.843 172.463 402.827C171.963 414.993 180.796 424.327 193.463 408.493C206.129 392.66 206.629 389.493 206.629 389.493C206.629 389.493 202.963 411.327 217.463 409.16C228.848 407.457 247.525 371.855 256.963 351.792C258.205 355.767 259.551 359.673 260.861 363.412C258.157 365.988 255.423 368.655 252.685 371.413C228.796 395.493 244.629 402.493 253.796 405.327C262.963 408.16 283.807 392.015 276.796 372.66C275.427 368.88 273.88 365.133 272.279 361.549C281.103 352.784 290.916 344.243 298.357 338.679C294.839 348.235 291.811 357.133 289.796 364.16C283.296 386.827 294.129 393.993 297.296 395.16C300.463 396.327 308.463 396.079 319.629 375.16C333.2 349.736 342.129 336.827 342.129 336.827C342.129 336.827 324.296 366.66 328.296 376.493C332.296 386.327 337.963 384.993 337.963 384.993C337.963 384.993 350.629 359.16 360.296 344.327C369.963 329.493 378.296 317.657 381.463 319.659C384.629 321.66 367.641 354.928 362.796 366.66C359.629 374.327 361.629 385.16 375.296 385.66C379.296 374.993 387.129 356.993 398.129 339.327C409.129 321.66 416.796 313.296 418.129 314.395C419.463 315.493 413.963 326.493 402.296 348.16C393.136 365.172 400.389 375.605 406.629 380.16C408.336 381.405 412.637 379.563 413.963 378.16C421.763 369.893 431.62 354.889 436.465 345.199C436.173 347.105 435.933 349.032 435.796 350.993C435.6 353.793 437.129 359.16 444.796 364.493C452.229 369.664 459.977 363.081 476.696 330.775C475.391 338.16 474.763 345.439 475.129 351.16C475.963 364.16 490.129 362.993 500.296 345.16C507.116 333.196 515.357 316.961 521.155 303.543C522.884 307.499 524.668 311.721 526.281 315.931C517.269 324.677 509.68 334.916 507.629 345.327C505.048 358.429 520.963 365.827 534.963 352.993C544.631 344.129 545.233 331.848 537.659 315.164C554.416 303.819 571.004 300.011 574.296 307.493C576.796 290.493 571.296 285.993 556.463 293.827" fill="white"/>
<path d="M299.98 428C301.116 418.4 306.311 411.315 309.463 414.881C312.403 418.209 307.364 422.671 299.98 428ZM301.343 453.489C300.199 454.685 298.916 455.921 297.463 457.215C288.352 465.327 278.24 454.882 290.017 442.437C292 440.343 293.855 438.628 295.599 437.17C296.393 443.357 298.504 449.19 301.343 453.489ZM314.017 421.771C318.796 412.881 303.907 403.104 297.463 419.437C295.987 423.178 295.311 427.255 295.26 431.339C293.368 432.661 291.413 434.028 289.463 435.437C277.463 444.104 276.907 454.771 285.24 460.771C291.851 465.529 298.153 463.764 304.777 457.573C306.431 459.072 308.205 460.083 310.037 460.437C320.389 462.437 320.129 446.882 320.129 446.882C320.129 446.882 318.129 446.994 316.684 447.327C316.907 449.104 318.24 454.215 314.217 457.771C312.289 459.473 309.769 458.247 307.321 455.007C308.22 454.032 309.123 453 310.037 451.882C318.573 441.437 311.463 435.882 306.129 436.548C308.544 441 307.876 445.196 304.352 449.969C302.829 446.753 301.463 442.792 300.463 438.327C300.133 436.855 299.935 435.383 299.833 433.925C306.184 429.477 310.732 427.884 314.017 421.771" fill="white"/>
<path d="M167.263 445.7L153.235 467.668L156.763 469.921L162.944 460.24L171.12 465.46L164.939 475.139L168.468 477.394L182.496 455.425L178.967 453.172L173.347 461.972L165.171 456.753L170.791 447.953L167.263 445.7" fill="white"/>
<path d="M187.132 474.823C187.132 474.823 193.635 467.089 194.593 465.877L194.655 465.905C194.308 467.412 192.44 477.368 192.44 477.368L187.132 474.823ZM194.256 490.42L198.809 463.694L193.992 461.387L176.093 481.711L179.991 483.578L184.964 477.772L191.529 480.92L190.207 488.477L194.256 490.42" fill="white"/>
<path d="M213.66 473.811C214.116 473.847 214.925 474.005 216.019 474.384C218.751 475.333 219.916 477.376 218.965 480.116C217.964 483 215.593 484.016 212.636 482.989C211.832 482.711 211.201 482.451 210.771 482.137L213.66 473.811ZM211.419 486.496C214.216 487.466 216.981 487.488 219.179 486.244C220.856 485.355 222.171 483.644 222.981 481.305C223.78 479.005 223.616 476.778 222.749 475.127C221.823 473.333 219.943 471.9 217.049 470.896C214.381 469.969 212.344 469.507 210.828 469.308L202.4 493.594L206.321 494.955L209.54 485.68C210.017 485.966 210.679 486.239 211.419 486.496" fill="white"/>
<path d="M234.787 480.221C235.244 480.207 236.065 480.277 237.193 480.539C240.009 481.189 241.385 483.097 240.732 485.923C240.044 488.899 237.796 490.166 234.747 489.46C233.917 489.268 233.264 489.077 232.803 488.811L234.787 480.221ZM233.911 493.077C236.795 493.744 239.547 493.466 241.597 491.999C243.169 490.933 244.295 489.088 244.852 486.677C245.4 484.304 245 482.107 243.961 480.559C242.851 478.872 240.828 477.649 237.845 476.959C235.095 476.323 233.021 476.078 231.493 476.044L225.701 501.1L229.745 502.037L231.957 492.465C232.461 492.701 233.148 492.899 233.911 493.077" fill="white"/>
<path d="M258.42 507.145L259.755 496.249L269.152 482.215L264.457 481.637C264.457 481.637 259.063 491.256 258.287 492.837L258.22 492.828C257.828 490.988 254.968 480.471 254.968 480.471L250.24 479.889L255.585 495.853L254.265 506.636L258.42 507.145" fill="white"/>
<path d="M299.535 508.212L303.852 508.028L302.741 481.989L298.865 482.152C298.865 482.152 299.668 498.568 300.088 502.033L300.02 502.037C298.845 499.261 289.347 482.559 289.347 482.559L284.587 482.76L285.699 508.799L289.54 508.637C289.54 508.637 288.779 491.6 288.465 488.245L288.565 488.204C289.813 491.092 299.535 508.212 299.535 508.212" fill="white"/>
<path d="M323.337 479.071L310.155 481.112L314.145 506.865L327.833 504.744L327.235 500.887L317.684 502.365L316.512 494.799L325.055 493.477L324.461 489.656L315.92 490.978L314.889 484.332L323.937 482.931L323.337 479.071" fill="white"/>
<path d="M332.604 477.199L328.323 478.444L340.996 501.9L345.34 500.637C345.34 500.637 344.008 482.539 343.623 479.753L343.688 479.732C344.739 482.366 352.921 498.433 352.921 498.433L357.233 497.177L355.867 470.433L351.783 471.621C351.783 471.621 353.397 489.839 353.804 492.7L353.739 492.717C352.624 490.103 344.397 473.768 344.397 473.768L340.183 474.995C340.183 474.995 341.633 493.5 342.043 496.239L341.976 496.26C340.892 493.877 332.604 477.199 332.604 477.199" fill="white"/>
<path d="M371.196 463.539L366.927 465.649L380.163 476.064L384.981 485.805L388.732 483.951L383.863 474.105L384.004 457.209L379.765 459.304C379.765 459.304 380.543 470.311 380.761 472.059L380.7 472.088C379.363 470.765 371.196 463.539 371.196 463.539" fill="white"/>
<path d="M399.443 447.599L388.149 454.695L402.027 476.76L413.752 469.389L411.672 466.083L403.491 471.227L399.413 464.744L406.731 460.144L404.672 456.872L397.355 461.471L393.773 455.776L401.521 450.904L399.443 447.599Z" fill="white"/>
<path d="M413.845 441.611C415.048 442.583 423.172 448.625 423.172 448.625L418.555 452.278C418.555 452.278 414.46 443.045 413.792 441.652L413.845 441.611ZM409.493 440.225L419.895 465.216L423.284 462.535L420.251 455.52L425.963 451L432.173 455.504L435.697 452.716L413.684 436.907L409.493 440.225" fill="white"/>
<path d="M436.843 432.048L435.08 433.797L429.277 427.951C429.487 427.582 430.008 426.899 430.949 425.965C432.883 424.048 435.063 423.733 437.08 425.766C438.904 427.605 438.848 430.06 436.843 432.048ZM439.699 422.511C438.147 420.949 436.359 420.161 434.62 420.196C432.499 420.232 430.469 421.376 428.127 423.7C426.412 425.4 424.909 427.221 424.016 428.543L442.132 446.794L445.079 443.871L437.532 436.266L439.029 434.783C440.775 433.158 442.311 433.161 445.167 435.12C447.913 436.971 449.797 438.095 450.584 438.405L453.652 435.36C452.605 434.983 450.045 433.273 447.249 431.472C445.068 430.095 443.088 429.5 441.439 430.156L441.356 430.073C442.252 427.933 442.069 424.899 439.699 422.511" fill="white"/>
<path d="M17.914 340.955L27.7265 334.231C25.5973 324.909 23.9751 315.397 22.8615 305.729H11.6776C13.0026 317.723 15.0984 329.479 17.914 340.955Z" fill="white"/>
<path d="M285.151 11.1187C360.313 11.1187 428.141 42.5227 476.229 92.9254L485.5 86.5734C435.317 33.2867 364.124 0.00671194 285.151 0.00671194C161.82 0.00671194 57.4432 81.1467 22.4807 192.953H34.1645C68.7297 87.3814 168.027 11.1187 285.151 11.1187Z" fill="white"/>
<path d="M560.293 277.339C560.299 276.617 560.321 275.899 560.321 275.177C560.321 239.064 553.352 204.583 540.707 172.987L531.304 179.431C542.836 209.059 549.183 241.28 549.208 274.981L560.293 277.339" fill="white"/>
<path d="M285.151 539.236C203.799 539.236 131.049 502.437 82.6115 444.588L73.3989 450.9C123.874 511.656 199.991 550.347 285.151 550.347C399.953 550.347 498.319 480.036 539.576 380.133L528.531 377.785C488.487 472.653 394.595 539.236 285.151 539.236Z" fill="white"/>
<path d="M160.74 118.452L164.252 115.652L152.82 91.4334L149.493 94.0867C149.493 94.0867 157.912 110.321 159.377 112.813L159.324 112.855C157.297 110.86 143.479 98.8814 143.479 98.8814L140.047 101.62C140.047 101.62 148.423 118.184 149.843 120.564L149.789 120.607C147.881 118.813 133.872 106.541 133.872 106.541L130.386 109.321L151.027 126.197L154.565 123.375C154.565 123.375 146.453 107.143 145.037 104.712L145.091 104.669C147.063 106.707 160.74 118.452 160.74 118.452" fill="white"/>
<path d="M185.493 102.041L183.465 98.704L175.208 103.72L171.232 97.1787L178.617 92.6934L176.609 89.3894L169.224 93.8733L165.731 88.1254L173.551 83.3747L171.523 80.0373L160.127 86.96L173.661 109.229L185.493 102.041" fill="white"/>
<path d="M213.716 89.1387L217.897 87.4973L214.101 60.9894L210.141 62.544C210.141 62.544 213.408 80.536 214.073 83.348L214.011 83.3733C212.661 80.8707 202.981 65.3534 202.981 65.3534L198.896 66.956C198.896 66.956 202.025 85.252 202.68 87.944L202.617 87.9693C201.321 85.6947 191.547 69.84 191.547 69.84L187.396 71.4693L202.153 93.6747L206.367 92.0227C206.367 92.0227 203.392 74.1227 202.755 71.3827L202.819 71.3574C204.104 73.8854 213.716 89.1387 213.716 89.1387" fill="white"/>
<path d="M226.131 57.928L222.092 59.0294L228.948 84.1773L232.987 83.0773L226.131 57.928" fill="white"/>
<path d="M243.363 57.6547C245.468 57.2587 247.176 57.684 248.072 58.0267L248.363 54.0747C247.064 53.6107 245.144 53.344 242.704 53.804C237.824 54.7254 235.352 58.4974 236.141 62.6774C236.839 66.3654 239.636 68.1587 243.633 68.98C246.731 69.6147 248.083 70.54 248.448 72.4787C248.844 74.5694 247.639 76.2534 244.999 76.7507C242.892 77.148 240.743 76.7667 239.24 76.144L239.071 80.192C240.465 80.7947 243.083 81.0867 245.456 80.64C251.272 79.5427 253.337 75.4534 252.563 71.348C251.865 67.6614 249.536 65.7787 245.309 64.844C242.051 64.0827 240.573 63.416 240.2 61.44C239.92 59.9587 240.755 58.1467 243.363 57.6547" fill="white"/>
<path d="M262.445 51.4346L258.272 51.748L260.22 77.7333L264.393 77.42L263.535 65.9693L273.207 65.2453L274.065 76.696L278.239 76.3827L276.292 50.3973L272.117 50.7093L272.897 61.12L263.225 61.844L262.445 51.4346" fill="white"/>
<path d="M303.556 77.3494L304.457 66.4054L313.292 52.0027L308.577 51.6147C308.577 51.6147 303.568 61.444 302.856 63.0534L302.787 63.0494C302.324 61.2267 299.048 50.832 299.048 50.832L294.3 50.4414L300.277 66.1787L299.385 77.0067L303.556 77.3494" fill="white"/>
<path d="M320.459 66.4387C321.5 61.164 324.516 57.304 328.589 58.1053C332.696 58.9133 333.9 63.88 332.949 68.6987C331.893 74.0493 328.833 77.7827 324.861 77.0013C320.921 76.2253 319.435 71.636 320.459 66.4387ZM323.887 80.712C330.096 81.9334 335.636 77.94 337.328 69.364C338.765 62.0787 336.008 55.6627 329.431 54.368C323.088 53.12 317.655 57.8054 316.105 65.66C314.621 73.1734 317.543 79.4627 323.887 80.712Z" fill="white"/>
<path d="M352.784 60.6773L348.815 59.3534L344.088 73.512C341.492 81.2893 343.684 85.568 348.719 87.2467C353.945 88.9907 358.525 86.7667 361.072 79.1373L365.787 65.0147L361.819 63.6907L357.005 78.1067C355.389 82.9493 352.932 84.616 350.059 83.6587C347.383 82.764 346.353 79.9347 347.971 75.0934L352.784 60.6773" fill="white"/>
</g>
<defs>
<clipPath id="clip0_1_2">
<rect width="574.88" height="550.347" fill="white"/>
</clipPath>
</defs>
</svg>
